<?xml version="1.0" encoding="UTF-8"?>
<svg width="200px" height="200px" viewBox="0 0 200 200" version="1.1" xmlns="http://www.w3.org/2000/svg" xmlns:xlink="http://www.w3.org/1999/xlink">
    <title>nft-light</title>
    <g id="Page-1" stroke="none" stroke-width="1" fill="none" fill-rule="evenodd">
        <path d="M200,0 L200,200 L0,200 L0,0 L200,0 Z M74.5479,7.020039 L69.0879,7.460039 C62.3625,7.997429 55.8413,10.026359 49.9981,13.399399 C44.155,16.772399 39.1367,21.404899 35.3079,26.959999 L32.1979,31.469999 C22.5561,45.463399 14.0458,60.203399 6.74789,75.549999 L4.39789,80.489999 C1.50233,86.582899 0,93.244099 0,99.989999 C0,106.735999 1.50233,113.396999 4.39789,119.489999 L6.74789,124.429999 C14.0458,139.776999 22.5561,154.516999 32.1979,168.509999 L35.3079,173.019999 C39.1367,178.574999 44.155,183.207999 49.9981,186.580999 C55.8413,189.953999 62.3625,191.982999 69.0879,192.519999 L74.5479,192.959999 C91.4873,194.319999 108.508,194.319999 125.448,192.959999 L130.908,192.519999 C137.638,191.975999 144.163,189.937999 150.006,186.553999 C155.85,183.169999 160.865,178.525999 164.688,172.959999 L167.798,168.449999 C177.44,154.456999 185.95,139.716999 193.248,124.369999 L195.598,119.429999 C198.493,113.336999 199.996,106.675999 199.996,99.929999 C199.996,93.184099 198.493,86.522899 195.598,80.429999 L193.248,75.509999 C185.95,60.163399 177.44,45.423399 167.798,31.429999 L164.688,26.959999 C160.859,21.404899 155.841,16.772399 149.998,13.399399 C144.155,10.026359 137.633,7.997429 130.908,7.460039 L125.448,7.020039 C108.508,5.659987 91.4873,5.659987 74.5479,7.020039 Z" id="nft-light" fill="#FFFFFF"></path>
    </g>
</svg>